<svg xmlns="http://www.w3.org/2000/svg" viewBox="0 0 16 16" width="16" height="16"><g fill="currentColor"> <path d="M10,14H6a2,2,0,0,0,4,0Z" fill="currentColor"/> <path d="M15.1,12.98A.992.992,0,0,0,15,11h-.5A4.04,4.04,0,0,1,13,8V5A4.983,4.983,0,0,0,4.067,1.946Z" fill="currentColor"/> <path d="M3,5.121V8a4.04,4.04,0,0,1-1.5,3H1a1,1,0,0,0,0,2h9.879Z" fill="currentColor"/> <path d="M15,15.5a.5.5,0,0,1-.354-.146l-14-14A.5.5,0,0,1,1.354.646l14,14A.5.5,0,0,1,15,15.5Z" data-color="color-2"/> </g></svg>
