<svg width="16" height="16" viewBox="0 0 16 16" fill="none" xmlns="http://www.w3.org/2000/svg">
<path fill-rule="evenodd" clip-rule="evenodd" d="M0 8C0 3.584 3.584 0 8 0C12.416 0 16 3.584 16 8C16 12.416 12.416 16 8 16C3.584 16 0 12.416 0 8ZM1.6 8C1.6 11.536 4.464 14.4 8 14.4C11.536 14.4 14.4 11.536 14.4 8C14.4 4.464 11.536 1.6 8 1.6C4.464 1.6 1.6 4.464 1.6 8ZM5.17157 5.17157C5.92172 4.42143 6.93913 4 8 4V12C6.93913 12 5.92172 11.5786 5.17157 10.8284C4.42143 10.0783 4 9.06087 4 8C4 6.93913 4.42143 5.92172 5.17157 5.17157Z" fill="currentColor"/>
<path fill-rule="evenodd" clip-rule="evenodd" d="M0 8C0 3.584 3.584 0 8 0C12.416 0 16 3.584 16 8C16 12.416 12.416 16 8 16C3.584 16 0 12.416 0 8ZM1.6 8C1.6 11.536 4.464 14.4 8 14.4C11.536 14.4 14.4 11.536 14.4 8C14.4 4.464 11.536 1.6 8 1.6C4.464 1.6 1.6 4.464 1.6 8ZM5.17157 5.17157C5.92172 4.42143 6.93913 4 8 4V12C6.93913 12 5.92172 11.5786 5.17157 10.8284C4.42143 10.0783 4 9.06087 4 8C4 6.93913 4.42143 5.92172 5.17157 5.17157Z" fill="currentColor"/>
</svg>
