<svg width="40" height="40" viewBox="0 0 40 40" fill="none" xmlns="http://www.w3.org/2000/svg">
<path d="M8.78491 31.1667L20.5349 27L12.9516 19.4167L8.78491 31.1667ZM37.2366 12.125C37.0399 12.3322 36.8096 12.4358 36.5457 12.4358C36.2819 12.4358 36.0517 12.3376 35.8553 12.1413L35.7462 12.0321C35.2931 11.579 34.743 11.3525 34.0957 11.3525C33.4482 11.3525 32.898 11.579 32.4449 12.0321L24.0024 20.4746C23.806 20.671 23.5759 20.7718 23.312 20.7771C23.0481 20.7826 22.8125 20.6818 22.6053 20.4746C22.3981 20.2671 22.2945 20.0342 22.2945 19.7758C22.2945 19.5172 22.3981 19.2843 22.6053 19.0771L31.0474 10.6346C31.883 9.7993 32.8937 9.38167 34.0795 9.38167C35.2653 9.38167 36.276 9.7993 37.1116 10.6346L37.2366 10.7596C37.4332 10.9562 37.5316 11.1839 37.5316 11.4425C37.5316 11.7008 37.4332 11.9283 37.2366 12.125ZM16.4641 7.33333C16.6713 7.12611 16.9042 7.0225 17.1628 7.0225C17.4214 7.0225 17.6544 7.12611 17.8616 7.33333L18.2141 7.68583C19.103 8.57472 19.5474 9.64097 19.5474 10.8846C19.5474 12.1282 19.103 13.1944 18.2141 14.0833L17.9128 14.3846C17.7164 14.5812 17.4863 14.6822 17.2224 14.6875C16.9585 14.6928 16.7228 14.5918 16.5153 14.3846C16.3081 14.1774 16.2045 13.9444 16.2045 13.6858C16.2045 13.4275 16.3081 13.1946 16.5153 12.9871L16.817 12.6858C17.3125 12.1903 17.5603 11.5899 17.5603 10.8846C17.5603 10.1796 17.3125 9.57917 16.817 9.08333L16.4641 8.73083C16.2677 8.53417 16.1667 8.30389 16.1612 8.04C16.1559 7.77611 16.2569 7.54056 16.4641 7.33333ZM22.8937 4.44875C23.1009 4.24153 23.3338 4.13792 23.5924 4.13792C23.851 4.13792 24.0839 4.24153 24.2912 4.44875L26.0666 6.22458C26.913 7.0707 27.3362 8.08667 27.3362 9.2725C27.3362 10.4583 26.913 11.4743 26.0666 12.3204L20.9578 17.4296C20.7612 17.6263 20.5309 17.7272 20.267 17.7325C20.0031 17.7378 19.7675 17.6368 19.5603 17.4296C19.3531 17.2224 19.2495 16.9894 19.2495 16.7308C19.2495 16.4722 19.3531 16.2393 19.5603 16.0321L24.6695 10.9233C25.1223 10.4703 25.3487 9.92 25.3487 9.2725C25.3487 8.625 25.1223 8.07472 24.6695 7.62167L22.8937 5.84625C22.697 5.64958 22.596 5.4193 22.5907 5.15542C22.5855 4.89153 22.6864 4.65597 22.8937 4.44875ZM34.7524 23.5192C34.5452 23.7264 34.3123 23.83 34.0537 23.83C33.7953 23.83 33.5625 23.7264 33.3553 23.5192L32.0603 22.2246C31.5539 21.7179 30.9342 21.4646 30.2012 21.4646C29.4684 21.4646 28.8488 21.7179 28.3424 22.2246L27.0474 23.5192C26.8507 23.7158 26.6205 23.8168 26.3566 23.8221C26.0927 23.8274 25.8571 23.7264 25.6499 23.5192C25.4427 23.3119 25.3391 23.079 25.3391 22.8204C25.3391 22.5621 25.4427 22.3292 25.6499 22.1217L26.9449 20.8271C27.8444 19.9274 28.9298 19.4775 30.2012 19.4775C31.4725 19.4775 32.5581 19.9274 33.4578 20.8271L34.7524 22.1217C34.9491 22.3183 35.05 22.5486 35.0553 22.8125C35.0606 23.0764 34.9596 23.3119 34.7524 23.5192ZM5.71741 32.2754L11.1757 17.0996C11.3041 16.7704 11.498 16.5193 11.7574 16.3463C12.0171 16.1732 12.2977 16.0867 12.5991 16.0867C12.7999 16.0867 12.9869 16.1203 13.1599 16.1875C13.333 16.255 13.4974 16.3667 13.6532 16.5225L23.4291 26.2979C23.5849 26.454 23.6964 26.6186 23.7637 26.7917C23.8312 26.9647 23.8649 27.1517 23.8649 27.3525C23.8649 27.6539 23.7784 27.9343 23.6053 28.1937C23.4323 28.4535 23.1812 28.6474 22.852 28.7754L7.67574 34.2337C7.37463 34.3512 7.08463 34.3694 6.80574 34.2883C6.52685 34.2072 6.28699 34.0663 6.08616 33.8654C5.88532 33.6646 5.74435 33.4247 5.66324 33.1458C5.58185 32.8669 5.59991 32.5768 5.71741 32.2754Z" fill="#005320"/>
</svg>
