<svg xmlns="http://www.w3.org/2000/svg" height="16" width="16" viewBox="0 0 16 16"><title>cloud-rain</title><g fill="currentColor"><path fill="currentColor" d="M14.7,11l-1.3-1.5C13.8,9.1,14,8.6,14,8c0-1-0.6-2.7-3.9-1.4C10,5.6,9.7,2,6,2C3.8,2,2,3.8,2,6 c0,1.3,0.6,2.4,1.6,3.2l-1.2,1.6C0.9,9.7,0,7.9,0,6c0-3.3,2.7-6,6-6c2.6,0,4.8,1.6,5.6,4C14,3.8,16,5.7,16,8 C16,9.1,15.5,10.2,14.7,11z"></path> <rect data-color="color-2" x="7" y="13" width="2" height="3"></rect> <rect data-color="color-2" x="4" y="11" width="2" height="3"></rect> <rect data-color="color-2" x="10" y="11" width="2" height="3"></rect></g></svg>