<svg xmlns="http://www.w3.org/2000/svg" width="16" height="16" viewBox="0 0 16 16"><g fill="currentColor"><path fill="currentColor" d="M15.70703,8.29297l-0.7644-0.7644L13.98975,0.8584C13.91943,0.36572,13.49756,0,13,0H3 C2.50244,0,2.08057,0.36572,2.01025,0.8584L1.05737,7.52856l-0.7644,0.7644C0.10547,8.48047,0,8.73486,0,9v4 c0,0.55225,0.44775,1,1,1v1c0,0.55231,0.44769,1,1,1h2c0.55231,0,1-0.44769,1-1v-1h6v1c0,0.55231,0.44769,1,1,1h2 c0.55231,0,1-0.44769,1-1v-1c0.55225,0,1-0.44775,1-1V9C16,8.73486,15.89453,8.48047,15.70703,8.29297z M5,11H2v-1h3V11z M3.15283,7 l0.71436-5h8.26562l0.71436,5H3.15283z M14,11h-1v1h-1v-1h-1v-1h1V9h1v1h1V11z"></path></g></svg>
