<svg xmlns="http://www.w3.org/2000/svg" height="16" width="16" viewBox="0 0 16 16"><title>b eye</title><g fill="currentColor"><path fill="currentColor" d="M14.574,5.669l-1.424,1.424C13.428,7.44,13.656,7.757,13.819,8c-0.76,1.13-2.85,3.82-5.561,3.985L6.443,13.8 C6.939,13.924,7.457,14,8,14c4.707,0,7.744-5.284,7.871-5.508c0.171-0.304,0.172-0.676,0.001-0.98 C15.825,7.427,15.372,6.631,14.574,5.669z"></path> <path fill="currentColor" d="M0.293,15.707C0.488,15.902,0.744,16,1,16s0.512-0.098,0.707-0.293l14-14c0.391-0.391,0.391-1.023,0-1.414 s-1.023-0.391-1.414,0l-2.745,2.745C10.515,2.431,9.331,2,8,2C3.245,2,0.251,7.289,0.126,7.514 c-0.169,0.303-0.168,0.672,0.002,0.975c0.07,0.125,1.044,1.802,2.693,3.276l-2.529,2.529C-0.098,14.684-0.098,15.316,0.293,15.707z M2.181,7.999C2.958,6.835,5.146,4,8,4c0.742,0,1.437,0.201,2.078,0.508L8.512,6.074C8.348,6.029,8.178,6,8,6C6.895,6,6,6.895,6,8 c0,0.178,0.029,0.348,0.074,0.512L4.24,10.346C3.285,9.51,2.559,8.562,2.181,7.999z"></path></g></svg>
