<svg width="16" height="20" viewBox="0 0 16 20" fill="currentColor" xmlns="http://www.w3.org/2000/svg">
<path d="M7.0998 15.9984H8.8998V12.2484L10.3248 13.6734L11.5998 12.3984L7.9998 8.79844L4.3998 12.3984L5.6748 13.6734L7.0998 12.2484V15.9984ZM2.5928 19.5984C2.09747 19.5984 1.6748 19.4222 1.3248 19.0697C0.974805 18.7172 0.799805 18.2934 0.799805 17.7984V2.19844C0.799805 1.70344 0.976055 1.27969 1.32855 0.927188C1.68105 0.574688 2.1048 0.398438 2.5998 0.398438H10.3998L15.1998 5.19844V17.7984C15.1998 18.2934 15.0235 18.7172 14.6708 19.0697C14.3181 19.4222 13.8941 19.5984 13.3988 19.5984H2.5928ZM9.1998 6.39844V2.19844H2.5998V17.7984H13.3998V6.39844H9.1998Z" fill="currentColor"/>
</svg>
