<svg width="16" height="16" viewBox="0 0 16 16" fill="currentColor" xmlns="http://www.w3.org/2000/svg">
  <path d="M13 6L15 1H3C3 0.4 2.6 0 2 0C1.4 0 1 0.4 1 1V15C1 15.6 1.4 16 2 16C2.6 16 3 15.6 3 15V11H15L13 6Z" fill="currentColor"/>
  <path d="M13 6L15 1H3C3 0.4 2.6 0 2 0C1.4 0 1 0.4 1 1V15C1 15.6 1.4 16 2 16C2.6 16 3 15.6 3 15V11H15L13 6Z" fill="currentColor"/>
  <path d="M23.9996 10.9734L18.5996 6.24844L19.9996 5.02344L23.9996 8.52344L27.9996 5.02344L29.3996 6.24844L23.9996 10.9734Z" fill="currentColor"/>
  <path d="M23.9996 10.9734L18.5996 6.24844L19.9996 5.02344L23.9996 8.52344L27.9996 5.02344L29.3996 6.24844L23.9996 10.9734Z" fill="currentColor"/>
</svg>

<svg width="16" height="16" viewBox="0 0 16 6" fill="currentColor" xmlns="http://www.w3.org/2000/svg">
  <path d="M5.99961 5.97344L0.599609 1.24844L1.99961 0.0234375L5.99961 3.52344L9.99961 0.0234375L11.3996 1.24844L5.99961 5.97344Z" fill="currentColor"/>
  <path d="M5.99961 5.97344L0.599609 1.24844L1.99961 0.0234375L5.99961 3.52344L9.99961 0.0234375L11.3996 1.24844L5.99961 5.97344Z" fill="currentColor"/>
</svg>
