<svg width="16" height="16" viewBox="0 0 16 16" fill="none" xmlns="http://www.w3.org/2000/svg">
<g clip-path="url(#clip0_4390_440)">
<g clip-path="url(#clip1_4390_440)">
<path fill-rule="evenodd" clip-rule="evenodd" d="M1 3H15C15.5523 3 16 3.44772 16 4V13C16 13.5523 15.5523 14 15 14H1C0.447715 14 0 13.5523 0 13V4C0 3.44771 0.447715 3 1 3ZM5.50049 12.5007C7.70963 12.5007 9.50049 10.7098 9.50049 8.50067C9.50049 6.29153 7.70963 4.50067 5.50049 4.50067C3.29135 4.50067 1.50049 6.29153 1.50049 8.50067C1.50049 10.7098 3.29135 12.5007 5.50049 12.5007ZM14 5H11V6H14V5ZM14 8H11V9H14V8ZM14 11H11V12H14V11Z" fill="currentColor"/>
<path d="M5.61023 7.58639C5.79746 7.16205 5.98206 6.76583 6.04661 6.33116C6.06297 6.22185 6.04953 6.10307 6.02471 5.99433C5.99696 5.8724 6.02558 5.77829 6.1097 5.69394C6.19207 5.6116 6.29577 5.57602 6.40355 5.61906C7.05783 5.88129 7.67824 6.1989 8.12631 6.75837C8.55188 7.29001 8.47448 7.95363 7.94696 8.3926C7.5725 8.70418 7.12385 8.83444 6.64715 8.88551C6.45496 8.90616 6.26072 8.91076 6.05129 8.92338C6.0878 9.01347 6.11555 9.09983 6.15644 9.1793C6.3203 9.49892 6.47832 9.82169 6.65796 10.1327C6.77012 10.3272 6.91471 10.4954 7.13816 10.5961C7.35197 10.6925 7.34847 11.0207 7.12823 11.1245C6.51104 11.4158 5.87603 11.6565 5.16946 11.5893C4.42258 11.5182 3.95932 10.9277 4.06769 10.195C4.14363 9.6811 4.39659 9.25132 4.71789 8.8528C4.74739 8.81636 4.77631 8.77935 4.82129 8.72283C4.23301 8.64135 3.66694 8.57593 3.09765 8.69873C3.02784 8.71365 2.96446 8.75554 2.89669 8.78136C2.60431 8.89325 2.37356 8.71967 2.40306 8.41297C2.45505 7.87129 2.56663 7.3451 2.82951 6.86051C3.01353 6.52167 3.25772 6.23792 3.65292 6.13549C4.12991 6.01183 4.53533 6.1791 4.88993 6.48208C5.18961 6.73829 5.37889 7.07311 5.53866 7.42486C5.55823 7.46789 5.57664 7.5115 5.61023 7.58639Z" fill="currentColor"/>
</g>
</g>
<defs>
<clipPath id="clip0_4390_440">
<rect width="16" height="16" fill="currentColor" transform="translate(0.000488281 0.000671387)"/>
</clipPath>
<clipPath id="clip1_4390_440">
<rect width="16" height="16" fill="currentColor" transform="translate(0.000488281 0.000671387)"/>
</clipPath>
</defs>
</svg>
