<svg width="16" height="16" viewBox="0 0 16 16" xmlns="http://www.w3.org/2000/svg">
<g fill="currentColor">
<path d="M8.00049 9.00067V15.0007C10.1222 15.0007 12.1571 14.1578 13.6573 12.6575C15.1576 11.1572 16.0005 9.1224 16.0005 7.00067V1.00067C13.8788 1.00067 11.8439 1.84353 10.3436 3.34382C8.84334 4.84411 8.00049 6.87894 8.00049 9.00067Z" fill="#5B5E65"/>
<path d="M0.000488281 6.00067V9.00067C0.000488281 10.592 0.632629 12.1181 1.75785 13.2433C2.88307 14.3685 4.40919 15.0007 6.00049 15.0007V12.0007C6.00049 10.4094 5.36835 8.88325 4.24313 7.75803C3.11791 6.63281 1.59179 6.00067 0.000488281 6.00067Z" fill="#5B5E65"/>
</g>
<defs>
<clipPath id="clip0_5058_3780">
<rect width="16" height="16" fill="white" transform="translate(0.000488281 0.000671387)"/>
</clipPath>
</defs>
</svg>
