<svg width="40" height="40" viewBox="0 0 40 40" fill="none" xmlns="http://www.w3.org/2000/svg">
<path d="M19.9997 27.9167C20.3469 27.9167 20.642 27.7951 20.8851 27.5521C21.1281 27.309 21.2497 27.0157 21.2497 26.6721C21.2497 26.3285 21.1281 26.0351 20.8851 25.7921C20.642 25.549 20.3469 25.4275 19.9997 25.4275C19.6525 25.4275 19.3591 25.549 19.1197 25.7921C18.8802 26.0351 18.7605 26.3285 18.7605 26.6721C18.7605 27.0157 18.8802 27.309 19.1197 27.5521C19.3591 27.7951 19.6525 27.9167 19.9997 27.9167ZM18.9355 22.6796H21.0297V12.0512H18.9355V22.6796ZM8.44009 34.1667C7.7287 34.1667 7.11634 33.91 6.60301 33.3967C6.08967 32.8833 5.83301 32.271 5.83301 31.5596V8.44042C5.83301 7.72903 6.08967 7.11667 6.60301 6.60333C7.11634 6.09 7.7287 5.83333 8.44009 5.83333H16.6068C16.6059 4.92667 16.9334 4.14444 17.5893 3.48667C18.2454 2.82889 19.0515 2.5 20.0076 2.5C20.964 2.5 21.7701 2.82889 22.4259 3.48667C23.082 4.14444 23.4043 4.92667 23.3926 5.83333H31.5593C32.2706 5.83333 32.883 6.09 33.3963 6.60333C33.9097 7.11667 34.1663 7.72903 34.1663 8.44042V31.5596C34.1663 32.271 33.9097 32.8833 33.3963 33.3967C32.883 33.91 32.2706 34.1667 31.5593 34.1667H8.44009ZM8.44009 32.0725H31.5593C31.6876 32.0725 31.8052 32.0192 31.9122 31.9125C32.0188 31.8056 32.0722 31.6879 32.0722 31.5596V8.44042C32.0722 8.31208 32.0188 8.19444 31.9122 8.0875C31.8052 7.98083 31.6876 7.9275 31.5593 7.9275H8.44009C8.31176 7.9275 8.19412 7.98083 8.08717 8.0875C7.98051 8.19444 7.92717 8.31208 7.92717 8.44042V31.5596C7.92717 31.6879 7.98051 31.8056 8.08717 31.9125C8.19412 32.0192 8.31176 32.0725 8.44009 32.0725ZM19.9976 7.1025C20.3684 7.1025 20.6876 6.97125 20.9551 6.70875C21.2226 6.44625 21.3563 6.12708 21.3563 5.75125C21.3563 5.37514 21.2226 5.05583 20.9551 4.79333C20.6876 4.53083 20.3684 4.39958 19.9976 4.39958C19.6265 4.39958 19.3097 4.53083 19.0472 4.79333C18.7847 5.05583 18.6534 5.37514 18.6534 5.75125C18.6534 6.12708 18.7847 6.44625 19.0472 6.70875C19.3097 6.97125 19.6265 7.1025 19.9976 7.1025Z" fill="#BF0811"/>
</svg>
