<svg xmlns="http://www.w3.org/2000/svg" viewBox="0 0 16 16" width="16" height="16"><g fill="currentColor"><path d="M13.167,11.021,10.45,9.814a1.4,1.4,0,0,0-1.662.4l-.783.979A10.7,10.7,0,0,1,4.8,8l.979-.783a1.4,1.4,0,0,0,.4-1.661L4.981,2.832a1.4,1.4,0,0,0-1.632-.787l-2.3.6A1.4,1.4,0,0,0,.014,4.2,13.91,13.91,0,0,0,11.806,15.986a1.4,1.4,0,0,0,1.552-1.037l.6-2.3A1.394,1.394,0,0,0,13.167,11.021Z" fill="currentColor"/><path d="M12,0A3.993,3.993,0,0,0,8.383,5.7L8,8l2.3-.383A4,4,0,1,0,12,0Z" data-color="color-2"/></g></svg>
