<svg xmlns="http://www.w3.org/2000/svg" viewBox="0 0 16 16" width="16" height="16"><g fill="currentColor"><path fill="currentColor" d="M7.3,15.7c-0.1-0.1-4.2-3.7-4.2-3.8C1.7,10.7,1,8.9,1,7c0-3.9,3.1-7,7-7s7,3.1,7,7c0,1.9-0.7,3.7-2.1,5 c-0.1,0.1-4.1,3.7-4.2,3.8C8.3,16.1,7.7,16.1,7.3,15.7z M4.6,10.7l3.4,3l3.4-3c0,0,0,0,0,0c1-1,1.6-2.2,1.6-3.6c0-2.8-2.2-5-5-5 S3,4.2,3,7C3,8.4,3.6,9.7,4.6,10.7C4.6,10.6,4.6,10.6,4.6,10.7z"/> <polygon data-color="color-2" points="11,6 9,6 9,4 7,4 7,6 5,6 5,8 7,8 7,10 9,10 9,8 11,8 "/></g></svg>
