<svg xmlns="http://www.w3.org/2000/svg" viewBox="0 0 16 16" width="16" height="16"><g fill="currentColor"><path d="M6,14H2V2H12V5.5L14,7V1a1,1,0,0,0-1-1H1A1,1,0,0,0,0,1V15a1,1,0,0,0,1,1H6Z" fill="currentColor"/><polygon points="12 8 8 11 8 16 11 16 11 13 13.035 13 13.035 16 16 16 16 11 12 8" data-color="color-2"/><rect x="4" y="4" width="6" height="1" fill="currentColor"/><rect x="4" y="7" width="6" height="1" fill="currentColor"/><rect x="4" y="10" width="3" height="1" fill="currentColor"/></g></svg>
