<svg xmlns="http://www.w3.org/2000/svg" viewBox="0 0 16 16" width="16" height="16"><g fill="currentColor"><path fill="currentColor" d="M15,3h-4c-0.6,0-1,0.4-1,1s0.4,1,1,1h4c0.6,0,1-0.4,1-1S15.6,3,15,3z"/> <path fill="currentColor" d="M5,1C3.7,1,2.6,1.9,2.2,3C2.1,3,2.1,3,2,3H1C0.4,3,0,3.4,0,4s0.4,1,1,1h1c0.1,0,0.1,0,0.2,0 C2.6,6.1,3.7,7,5,7c1.7,0,3-1.3,3-3S6.7,1,5,1z"/> <path data-color="color-2" d="M1,13h4c0.6,0,1-0.4,1-1s-0.4-1-1-1H1c-0.6,0-1,0.4-1,1S0.4,13,1,13z"/> <path data-color="color-2" d="M15,11h-1c-0.1,0-0.1,0-0.2,0c-0.4-1.2-1.5-2-2.8-2c-1.7,0-3,1.3-3,3s1.3,3,3,3 c1.3,0,2.4-0.9,2.8-2c0.1,0,0.1,0,0.2,0h1c0.6,0,1-0.4,1-1S15.6,11,15,11z"/></g></svg>
