<svg xmlns="http://www.w3.org/2000/svg" width="16" height="16" viewBox="0 0 16 16"><g fill="currentColor"><path fill="currentColor" d="M15.96973,8.75732l-2-8C13.8584,0.3125,13.45898,0,13,0H3C2.54102,0,2.1416,0.3125,2.03027,0.75732l-2,8 c-0.0752,0.29883-0.00781,0.61523,0.18164,0.85791S0.69238,10,1,10h14c0.30762,0,0.59863-0.14209,0.78809-0.38477 S16.04492,9.05615,15.96973,8.75732z M12.71875,4H9V2h3.21875L12.71875,4z M7,2v2H3.28125l0.5-2H7z M2.78125,6H7v2H2.28125 L2.78125,6z M9,8V6h4.21875l0.5,2H9z"></path> <path d="M13,14H9v-3H7v3H3c-0.55273,0-1,0.44775-1,1s0.44727,1,1,1h10c0.55273,0,1-0.44775,1-1 S13.55273,14,13,14z"></path></g></svg>
