<svg xmlns="http://www.w3.org/2000/svg" viewBox="0 0 16 16" width="16" height="16"><g fill="currentColor"><path fill="currentColor" d="M12.9,12.5c0.7-1,1.1-2.2,1.1-3.5c0-3.3-2.7-6-6-6S2,5.7,2,9c0,1.3,0.4,2.5,1.1,3.5l-1.8,1.8 c-0.4,0.4-0.4,1,0,1.4C1.5,15.9,1.7,16,2,16s0.5-0.1,0.7-0.3l1.8-1.8C5.5,14.6,6.7,15,8,15s2.5-0.4,3.5-1.1l1.8,1.8 c0.2,0.2,0.5,0.3,0.7,0.3s0.5-0.1,0.7-0.3c0.4-0.4,0.4-1,0-1.4L12.9,12.5z M7,10V6h2v2h2v2H7z"/> <path data-color="color-2" d="M11.5,0c-1.1,0-2.1,0.4-2.8,1c3.2,0.3,5.9,2.4,6.9,5.4C15.8,5.8,16,5.2,16,4.5 C16,2,14,0,11.5,0z"/> <path data-color="color-2" d="M7.3,1C6.6,0.4,5.6,0,4.5,0C2,0,0,2,0,4.5c0,0.7,0.2,1.3,0.4,1.9C1.5,3.5,4.1,1.3,7.3,1z"/></g></svg>
