<svg xmlns="http://www.w3.org/2000/svg" height="16" width="16" viewBox="0 0 16 16"><g fill="currentColor"><path d="M8.142,7.507C8.094,7.506,8.048,7.5,8,7.5c-1.9,0-3.6,0.7-4.9,2.1L4.5,11 c0.798-0.886,1.912-1.357,3.06-1.457L8.142,7.507z"></path> <path d="M10.13,7.827L9.573,9.776c0.724,0.242,1.398,0.636,1.927,1.224l1.4-1.4 C12.11,8.749,11.171,8.161,10.13,7.827z"></path> <path d="M8.848,5.039l0.557-1.946C8.942,3.037,8.475,3,8,3C5,3,2.2,4.1,0,6.2l1.4,1.4C3.2,5.9,5.5,5,8,5 C8.286,5,8.568,5.015,8.848,5.039z"></path> <path d="M11.368,3.493l-0.55,1.924c1.4,0.428,2.684,1.186,3.781,2.283L16,6.2 C14.651,4.913,13.076,4.005,11.368,3.493z"></path> <path d="M6.001,16c-0.092,0-0.184-0.013-0.275-0.039c-0.531-0.152-0.839-0.705-0.688-1.236l4-14 c0.152-0.532,0.711-0.839,1.236-0.687c0.531,0.152,0.839,0.705,0.688,1.236l-4,14C6.836,15.714,6.436,16,6.001,16z"></path></g></svg>
